<?xml version="1.0" encoding="utf-8"?>
<!-- Generator: Adobe Illustrator 26.0.3, SVG Export Plug-In . SVG Version: 6.00 Build 0)  -->
<svg xmlns:xlink="http://www.w3.org/1999/xlink" version="1.1" id="Ebene_1" xmlns="http://www.w3.org/2000/svg" x="0px" y="0px"
	 viewBox="0 0 169.5 192.2" style="enable-background:new 0 0 169.5 192.2;" xml:space="preserve">
<style type="text/css">
	.st0{fill:none;stroke:#BA2A2A;stroke-miterlimit:10;}
	.st1{fill:none;stroke:#000000;stroke-width:5;stroke-miterlimit:10;}
	.st2{fill:none;}
	.st3{font-family:'Galvji';}
	.st4{font-size:66.39px;}
</style>
<path class="st0" d="M2.5,118.1"/>
<path class="st0" d="M2.5,118.1"/>
<path class="st0" d="M17.2,66"/>
<path class="st1" d="M17.2,92.9V39.7c0-5.5,4-9.9,9-9.9h116.9c5,0,9,4.4,9,9.9v10.6"/>
<path class="st0" d="M2.5,125.5"/>
<path class="st1" d="M167,117.4l0,50.5c0,11.3-9.2,20.5-20.5,20.5H23.1c-11.3,0-20.5-9.2-20.5-20.5v-42.4"/>
<path class="st1" d="M163.2,76.1"/>
<path class="st1" d="M52.8,29.8L76.7,5.9c2.2-2.1,5.1-3.3,8.1-3.4c3,0,6,1.2,8.1,3.4l24,24"/>
<path class="st1" d="M2.5,118.1V84.8c0-3,1.2-6,3.4-8.1l11.4-11.3"/>
<path class="st2" d="M17.2,66"/>
<line class="st1" x1="152" y1="58.3" x2="152" y2="91"/>
<path class="st1" d="M9.8,183.6l67.8-44.3c4.3-2.8,9.7-2.8,14,0l68,44.3"/>
<line class="st1" x1="165.6" y1="79.8" x2="93.5" y2="140.6"/>
<line class="st1" x1="74.9" y1="140.6" x2="3.1" y2="81.1"/>
<text transform="matrix(1.13 0 0 1 49.8696 95.4902)" class="st3 st4">@</text>
<rect x="122.9" y="184.8" class="st5" width="7.4" height="7.4"/>
<path class="st1" d="M152.3,64.6L163.7,76c2.1,2.2,3.4,5.1,3.4,8.1v33.3"/>
</svg>
